<?xml version="1.0" encoding="utf-8"?>
<!-- Generator: Adobe Illustrator 21.0.2, SVG Export Plug-In . SVG Version: 6.00 Build 0)  -->
<svg version="1.1" xmlns="http://www.w3.org/2000/svg" xmlns:xlink="http://www.w3.org/1999/xlink" x="0px" y="0px"
	 viewBox="0 0 2000 2395.2" style="enable-background:new 0 0 2000 2395.2;" xml:space="preserve">
<style type="text/css">
	.st0{fill:none;stroke:#000000;stroke-width:7;stroke-linecap:round;stroke-miterlimit:10;}
	.st1{fill:none;}
	.st2{fill:#FFD561;}
	.st3{fill:#232020;}
	.st4{fill:#FDE877;}
	.st5{fill:#7CBEE9;}
	.st6{fill:#F26868;}
	.st7{fill:#FFFFFF;}
	.st8{fill:none;stroke:#232020;stroke-width:41.9115;stroke-linecap:round;stroke-linejoin:round;stroke-miterlimit:10;}
	.st9{fill:#F2993B;}
	.st10{fill:none;stroke:#232020;stroke-width:45.4042;stroke-linecap:round;stroke-linejoin:round;stroke-miterlimit:10;}
</style>
<g id="Layer_1">
	<line class="st0" x1="-1063.7" y1="-1336.4" x2="-1047.5" y2="-1320.2"/>
	<path class="st1" d="M-1630.8,2266.2C-1630.8,2266.2-1630.8,2266.2-1630.8,2266.2C-1630.8,2266.2-1630.8,2266.2-1630.8,2266.2
		L-1630.8,2266.2z"/>
	<path class="st1" d="M-1630.8,2268.2C-1630.8,2268.2-1630.8,2268.2-1630.8,2268.2L-1630.8,2268.2
		C-1630.8,2268.2-1630.8,2268.2-1630.8,2268.2z"/>
	<g>
		<path class="st1" d="M999.2,2242.2C999.2,2242.2,999.2,2242.2,999.2,2242.2C999.2,2242.2,999.2,2242.2,999.2,2242.2L999.2,2242.2z
			"/>
		<path class="st1" d="M999.2,2244.2C999.2,2244.2,999.2,2244.2,999.2,2244.2L999.2,2244.2C999.2,2244.2,999.2,2244.2,999.2,2244.2z
			"/>
		<g>
			<g>
				<g>
					<g>
						<path class="st2" d="M362.3,898.7c0,143.2,89.8,376.6,276.5,713.6c132.1,238.4,361.5,557.3,361.5,557.3c0,0.2,3.2,3.6,3.2,3.6
							s2.8-3.2,2.8-3.3c0,0,228.8-319.2,360.9-557.6c186.7-337,276.6-570.4,276.6-713.6"/>
					</g>
					<g>
						<path class="st3" d="M1003.5,2195.9c-6.2,0-12.2-2.6-16.5-7.1c-1.8-1.9-3.6-3.8-5.1-6l0,0c-2.3-3.2-231.7-322.8-362.9-559.6
							C431,1284,339.6,1047,339.6,898.7c0-12.5,10.2-22.7,22.7-22.7s22.7,10.2,22.7,22.7c0,68.6,22.4,161.5,66.7,275.9
							c45.2,116.8,114.8,260.4,207,426.7c110.3,199.1,291.2,457.9,344.7,533.5c53.6-76,233.8-334.7,343.9-533.5
							c92.2-166.3,161.8-309.9,207-426.7c44.3-114.4,66.7-207.3,66.7-275.9c0-12.5,10.2-22.7,22.7-22.7s22.7,10.2,22.7,22.7
							c0,148.3-91.4,385.3-279.4,724.6c-131.2,236.8-360,556.6-362.3,559.8l0,0c-1.3,1.8-2.7,3.5-4.1,5.1
							c-4.2,4.8-10.3,7.6-16.7,7.7C1003.8,2195.9,1003.7,2195.9,1003.5,2195.9z M1023,2169.5C1023,2169.5,1023,2169.6,1023,2169.5
							C1023,2169.6,1023,2169.5,1023,2169.5z M983.6,2169.6L983.6,2169.6c0-3.9,1.1-7.8,3.1-11.1l0,0
							C985.3,2160.8,983.7,2164.6,983.6,2169.6z M1023,2169.5C1023,2169.5,1023,2169.5,1023,2169.5
							C1023,2169.5,1023,2169.5,1023,2169.5z M1019.7,2157.9c2.1,3.5,3.2,7.5,3.2,11.6C1023,2164.3,1021.2,2160.4,1019.7,2157.9
							L1019.7,2157.9z"/>
					</g>
				</g>
				<g>
					<g>
						<path class="st4" d="M736.3,1174.8V1434c0,148.5,120.9,268.9,268.3,268.9s268.3-120.4,268.3-268.9v-259.2"/>
					</g>
					<g>
						<path class="st3" d="M1004.6,1725.1c-160.2,0-290.6-130.6-290.6-291.2v-259.2c0-12.3,10-22.2,22.2-22.2
							c12.3,0,22.2,10,22.2,22.2V1434c0,136,110.4,246.7,246.1,246.7c135.7,0,246.1-110.7,246.1-246.7v-259.2
							c0-12.3,10-22.2,22.2-22.2s22.2,10,22.2,22.2V1434C1295.2,1594.5,1164.8,1725.1,1004.6,1725.1z"/>
					</g>
				</g>
				<g>
					<g>
						<path class="st5" d="M667.1,1057.6c0,187.7,149.5,339.8,335.9,339.8s335.9-152.1,335.9-339.8"/>
					</g>
					<g>
						<path class="st3" d="M1003,1420.1c-96.2,0-186.4-37.7-254-106.3c-32.8-33.3-58.6-72-76.6-115.2c-18.6-44.6-28-92.1-28-141
							c0-12.5,10.2-22.7,22.7-22.7s22.7,10.2,22.7,22.7c0,84.9,32.5,164.5,91.5,224.3c59,59.8,137.7,92.8,221.7,92.8
							c83.9,0,162.6-32.9,221.7-92.8c59-59.8,91.5-139.5,91.5-224.3c0-12.5,10.2-22.7,22.7-22.7s22.7,10.2,22.7,22.7
							c0,48.9-9.4,96.3-28,141c-18,43.2-43.7,82-76.6,115.2C1189.4,1382.3,1099.2,1420.1,1003,1420.1z"/>
					</g>
				</g>
			</g>
			<g>
				<g>
					<g>
						<g>
							<g>
								<g>
									<path class="st2" d="M776.2,906.5h453.1c4.8,134.2-22.4,348,124.1,413.5c78.3,35,175-1,230.3-66.6
										c124.2-147.5,91.4-352.3,38.6-521.3c-57.2-183.3-182.3-339.6-359-420c-81.7-37.2-171.2-57-261-56.5"/>
								</g>
							</g>
						</g>
					</g>
					<g>
						<g>
							<g>
								<g>
									<path class="st2" d="M1222.2,906.5H770.7c-4.8,134.2,22.4,348-124.1,413.5c-78.3,35-175-1-230.3-66.6
										c-124.2-147.5-91.4-352.3-38.6-521.3c57.2-183.3,182.3-339.6,359-420c81.7-37.2,170.3-57,260.2-56.5"/>
								</g>
							</g>
						</g>
					</g>
				</g>
				<g>
					<g id="XMLID_40_">
						<g>
							<g>
								<path class="st6" d="M1097.8,1248.1v197.2c0,53-44.8,96-97.8,96c-53,0-97.8-42.9-97.8-96v-197.2H1097.8z"/>
							</g>
						</g>
						<g>
							<g>
								<path class="st3" d="M1000,1562.2c-31.2,0-60.8-12.1-83.4-34c-22.8-22.2-35.3-51.6-35.3-82.9v-197.2c0-11.6,9.4-21,21-21
									h195.5c11.6,0,21,9.4,21,21v197.2c0,31.2-12.6,60.7-35.3,82.9C1060.8,1550.1,1031.2,1562.2,1000,1562.2z M923.2,1269v176.2
									c0,19.8,8.1,38.6,22.7,52.9c14.7,14.3,33.9,22.1,54.1,22.1s39.5-7.9,54.1-22.1c14.6-14.3,22.7-33,22.7-52.9V1269H923.2z"/>
							</g>
							<g>
								<path class="st7" d="M999.3,1508.8c-8.4,0-15.8-6.1-17.2-14.7c-1.5-9.5,4.9-18.5,14.5-20c21.9-3.5,37.5-24.5,34-45.8
									c-1.5-9.5,5-18.5,14.5-20c9.5-1.5,18.5,5,20,14.5c3.2,19.7-1.8,39.6-13.9,55.9c-12,16.1-29.4,26.7-49.1,29.9
									C1001.1,1508.7,1000.2,1508.8,999.3,1508.8z"/>
							</g>
							<g>
								<path class="st3" d="M1001.4,1442.6c-11.6,0-21-9.4-21-21v-166.1c0-11.6,9.4-21,21-21s21,9.4,21,21v166.1
									C1022.3,1433.2,1012.9,1442.6,1001.4,1442.6z"/>
							</g>
						</g>
					</g>
					<g>
						<g>
							<path class="st7" d="M1050.1,1395.7c-9.8,0-17.8-8-17.8-17.8v-14.5c0-9.8,8-17.8,17.8-17.8s17.8,8,17.8,17.8v14.5
								C1067.9,1387.7,1060,1395.7,1050.1,1395.7z"/>
						</g>
					</g>
				</g>
				<g>
					<g>
						<path class="st8" d="M1000,1151.3"/>
					</g>
				</g>
				<g>
					<g>
						<g>
							<path class="st9" d="M646.6,1037.1c0,80.7,25,153.9,67.4,214.5l48.8-84L941.6,1280h106.2l178.8-113.1l53.5,91.9
								c46-62.1,73.4-137,73.4-221.4c0-100-38.4-192.5-100.7-254.1H747.2C685,844.8,646.6,937.1,646.6,1037.1z"/>
						</g>
					</g>
				</g>
				<g>
					<g>
						<g>
							<g>
								<g>
									<path class="st3" d="M1418.9,1356.4c-26.2,0-51.4-5.2-74.7-15.7c-67.8-30.3-109.1-91.4-126.3-186.7
										c-2.2-12.3,6-24.1,18.3-26.4c12.3-2.2,24.1,6,26.4,18.3c6.9,38.1,17.5,68.6,32.6,93.2c16.9,27.6,39,47.3,67.5,60.1
										c22.3,10,59.2,18.7,107.7,3.5c36.8-11.6,70.9-34.3,95.9-64c27.6-32.8,48.3-70.5,61.6-112.2c12.1-37.9,18.4-80.3,18.8-126
										c0.6-75-14.5-160.7-46-261.7c-28.2-90.3-72.1-171.3-130.4-240.7c-60.4-71.9-133.2-127.5-216.3-165.4
										c-78.4-35.7-164.2-54.5-248.2-54.5c-0.9,0-1.9,0-2.8,0c0,0-0.1,0-0.1,0c-12.5,0-22.6-10.1-22.7-22.6
										c-0.1-12.5,10-22.8,22.6-22.8c1,0,2,0,3.1,0c90.4,0,182.7,20.2,267,58.6c89.4,40.7,167.5,100.4,232.3,177.5
										c62.2,74.1,109,160.3,139,256.4c33,105.6,48.7,195.8,48.1,275.6c-0.4,50.2-7.4,97.1-20.9,139.4
										c-15.1,47.4-38.7,90.3-70.1,127.7c-30.5,36.2-72.1,64-117,78.1C1462,1353,1440.1,1356.4,1418.9,1356.4z"/>
								</g>
							</g>
						</g>
					</g>
					<g>
						<g>
							<g>
								<g>
									<path class="st3" d="M581.1,1356.4c-21.2,0-43.1-3.4-65.1-10.4c-45-14.1-86.5-41.9-117-78.1c-31.4-37.3-55-80.3-70.1-127.7
										c-13.5-42.3-20.5-89.2-20.9-139.4c-0.6-79.8,15.1-170,48.1-275.6c30-96.1,76.8-182.3,139-256.4
										c64.8-77.1,142.9-136.8,232.3-177.5c86.4-39.3,177.1-59,269.2-58.6c12.5,0.1,22.7,10.3,22.6,22.8
										c-0.1,12.5-10.2,22.6-22.7,22.6c0,0-0.1,0-0.1,0c-1,0-2,0-3,0c-84.6,0-167.7,18.3-247.2,54.5
										c-83.2,37.8-155.9,93.5-216.3,165.4c-58.3,69.4-102.2,150.4-130.4,240.7c-31.6,101.1-46.6,186.7-46,261.7
										c0.4,45.7,6.7,88.1,18.8,126c13.3,41.7,34,79.4,61.6,112.2c25,29.7,59.1,52.4,95.9,64c26.8,8.4,67.2,14.6,107.7-3.5
										c56.5-25.3,89-78.2,102.3-166.6c1.9-12.4,13.4-20.9,25.8-19.1c12.4,1.9,20.9,13.4,19.1,25.8
										c-15.6,103.7-57.7,169.5-128.7,201.3C632.5,1351.2,607.2,1356.4,581.1,1356.4z"/>
								</g>
							</g>
							<g>
								<g>
									<path class="st10" d="M1221.2,906.5"/>
								</g>
							</g>
						</g>
					</g>
				</g>
				<g>
					<g>
						<path class="st2" d="M739.9,772.3v250.6c0,147.3,116.7,266.6,262.9,266.6s262.9-119.4,262.9-266.6V772.3"/>
					</g>
					<g>
						<path class="st3" d="M1002.8,1311.8c-76.6,0-148.4-30.1-202.1-84.7c-53.5-54.4-83-126.9-83-204.1V772.3
							c0-12.3,10-22.2,22.2-22.2s22.2,10,22.2,22.2v250.6c0,65.5,24.9,126.9,70.2,172.9c45.3,46.1,105.8,71.4,170.4,71.4
							s125.1-25.4,170.4-71.4c45.3-46.1,70.2-107.5,70.2-172.9V772.3c0-12.3,10-22.2,22.2-22.2s22.2,10,22.2,22.2v250.6
							c0,77.2-29.5,149.7-83,204.1C1151.2,1281.7,1079.4,1311.8,1002.8,1311.8z"/>
					</g>
				</g>
				<g>
					<g>
						<path class="st3" d="M912,995.7c-26.4,0-46.1,24.7-40.2,50.6c16.6,72.3,67.7,126,128.2,126c60.5,0,111.6-53.6,128.2-126
							c5.9-25.9-13.8-50.6-40.2-50.6H912z"/>
					</g>
				</g>
				<g>
					<g>
						<g>
							<g>
								<g>
									<g>
										<g>
											<ellipse class="st3" cx="826.1" cy="614.7" rx="82.5" ry="83.1"/>
										</g>
										<g>
											<path class="st3" d="M826.1,699.8c-46.6,0-84.6-38.2-84.6-85.2s37.9-85.2,84.6-85.2s84.6,38.2,84.6,85.2
												S872.8,699.8,826.1,699.8z M826.1,533.6c-44.4,0-80.5,36.4-80.5,81.1s36.1,81.1,80.5,81.1s80.5-36.4,80.5-81.1
												S870.5,533.6,826.1,533.6z"/>
										</g>
									</g>
								</g>
							</g>
							<g>
								<g>
									<g>
										<g>
											<ellipse class="st7" cx="844.4" cy="591.2" rx="30.2" ry="30.4"/>
										</g>
										<g>
											<path class="st3" d="M844.4,623.2c-17.5,0-31.8-14.3-31.8-32s14.2-32,31.8-32s31.8,14.3,31.8,32S861.9,623.2,844.4,623.2
												z M844.4,562.4c-15.8,0-28.6,12.9-28.6,28.8s12.8,28.8,28.6,28.8s28.6-12.9,28.6-28.8S860.2,562.4,844.4,562.4z"/>
										</g>
									</g>
								</g>
							</g>
						</g>
					</g>
					<g>
						<g>
							<g>
								<g>
									<g>
										<g>
											<ellipse class="st3" cx="1173.9" cy="614.7" rx="82.5" ry="83.1"/>
										</g>
										<g>
											<path class="st3" d="M1173.9,699.8c-46.6,0-84.6-38.2-84.6-85.2s37.9-85.2,84.6-85.2c46.6,0,84.6,38.2,84.6,85.2
												S1220.5,699.8,1173.9,699.8z M1173.9,533.6c-44.4,0-80.5,36.4-80.5,81.1s36.1,81.1,80.5,81.1c44.4,0,80.5-36.4,80.5-81.1
												S1218.2,533.6,1173.9,533.6z"/>
										</g>
									</g>
								</g>
							</g>
							<g>
								<g>
									<g>
										<g>
											<ellipse class="st7" cx="1192.1" cy="591.2" rx="30.2" ry="30.4"/>
										</g>
										<g>
											<path class="st3" d="M1192.1,623.2c-17.5,0-31.8-14.3-31.8-32s14.2-32,31.8-32s31.8,14.3,31.8,32
												S1209.6,623.2,1192.1,623.2z M1192.1,562.4c-15.8,0-28.6,12.9-28.6,28.8s12.8,28.8,28.6,28.8c15.8,0,28.6-12.9,28.6-28.8
												S1207.9,562.4,1192.1,562.4z"/>
										</g>
									</g>
								</g>
							</g>
						</g>
					</g>
				</g>
			</g>
		</g>
	</g>
</g>
<g id="Layer_2">
</g>
</svg>
