<?xml version="1.0" encoding="utf-8"?>
<!-- Generator: Adobe Illustrator 21.0.2, SVG Export Plug-In . SVG Version: 6.00 Build 0)  -->
<svg version="1.1" xmlns="http://www.w3.org/2000/svg" xmlns:xlink="http://www.w3.org/1999/xlink" x="0px" y="0px"
	 viewBox="0 0 2000 2871.2" style="enable-background:new 0 0 2000 2871.2;" xml:space="preserve">
<style type="text/css">
	.st0{fill:none;stroke:#000000;stroke-width:7;stroke-linecap:round;stroke-miterlimit:10;}
	.st1{fill:none;}
	.st2{fill:none;stroke:#232020;stroke-miterlimit:10;}
	.st3{fill:#232020;}
	.st4{fill:#FFD561;}
	.st5{fill:#FDE877;}
	.st6{fill:#7CBEE9;}
	.st7{fill:#F26868;}
	.st8{fill:#FFFFFF;}
	.st9{fill:none;stroke:#232020;stroke-width:41.9115;stroke-linecap:round;stroke-linejoin:round;stroke-miterlimit:10;}
	.st10{fill:#F2993B;}
	.st11{fill:none;stroke:#232020;stroke-width:45.4042;stroke-linecap:round;stroke-linejoin:round;stroke-miterlimit:10;}
</style>
<g id="Layer_1">
	<line class="st0" x1="-1063.7" y1="-1336.4" x2="-1047.5" y2="-1320.2"/>
	<path class="st1" d="M999.2,2266.2C999.2,2266.2,999.2,2266.2,999.2,2266.2C999.2,2266.2,999.2,2266.2,999.2,2266.2L999.2,2266.2z"
		/>
	<path class="st1" d="M999.2,2268.2C999.2,2268.2,999.2,2268.2,999.2,2268.2L999.2,2268.2C999.2,2268.2,999.2,2268.2,999.2,2268.2z"
		/>
	<g>
		<g>
			<path class="st1" d="M863.3,2416.1c-27.6,0-46.9,21.7-51,52.8h100.9C910.2,2439.3,893,2416.1,863.3,2416.1z"/>
		</g>
		<g>
			<path class="st2" d="M1293.7,2416.1c-27.6,0-46.9,21.7-51,52.8h100.9C1340.7,2439.3,1323.5,2416.1,1293.7,2416.1z"/>
		</g>
		<path class="st3" d="M318.7,2346.2c2.8,0,6.4,0.4,8.8,0.7l0.4,0c5.8,0.2,11.4-1.9,15.7-6.1c4.4-4.3,6.9-10.2,6.9-16.4
			c0-12.9-9.6-21.2-18.6-22.5c-7.3-1.3-14.9-1.9-23.3-1.9c-20.3,0-35.6,5.6-46.8,17c-11.3,11.5-17,29-17,51.9v11.3h-4.3
			c-12.4,0-22.5,10.3-22.5,22.9c0,12.4,10.1,22.5,22.5,22.5h4.3v136.7c0,14.5,11.6,26.3,25.8,26.3c14.5,0,26.2-11.8,26.2-26.3
			v-136.7h30.8c12.4,0,22.5-10.1,22.5-22.5c0-12.6-9.9-22.5-22.5-22.5h-31.5v-7.5C296.1,2354.5,303.1,2346.2,318.7,2346.2z"/>
		<path class="st3" d="M543.8,2376.9c-14.7,0-26.2,11.7-26.2,26.7v92.3c0,28.3-15.6,45.9-40.8,45.9c-24.9,0-38.6-16-38.6-45.1v-93.1
			c0-15-11.5-26.7-26.2-26.7c-14.3,0-25.8,12-25.8,26.7v106.8c0,49.7,28.2,80.6,73.5,80.6c23.4,0,42.5-9.2,58-28.2
			c0.2,14.3,11.9,25.9,26.2,25.9c14.5,0,26.2-11.8,26.2-26.3v-158.8C570,2388.8,558.3,2376.9,543.8,2376.9z"/>
		<path class="st3" d="M720,2376.5c-16.9,0-34,12.5-46,32.7v-5.7c0-15-11.5-26.7-26.2-26.7c-14.5,0-25.8,11.7-25.8,26.7v158.8
			c0,14.7,11.4,26.3,25.8,26.3c14.5,0,26.2-11.8,26.2-26.3v-59.3c0-42.4,18.2-69,51.1-74.8c12.6-2.4,20.7-12.4,20.7-25.5
			C745.8,2387.1,735.4,2376.5,720,2376.5z"/>
		<g>
			<path class="st3" d="M863.6,2378.5c-56.2,0-96.1,47.1-96.1,104.5v0.8c0,61.9,43.9,104.1,100.9,104.1c30.5,0,52.9-10.3,70.8-26.6
				c3.4-3.4,6-8.4,6-14.1c0-10.6-7.8-18.6-17.9-18.6c-5.2,0-8.2,1.5-11.5,4.2c-12.7,10.6-27.6,17.5-46.6,17.5
				c-29,0-51.8-18.2-56.6-50.9h123.3c11.5,0,21.2-9.1,21.2-22C957.1,2430.9,926.2,2378.5,863.6,2378.5z M812.2,2468.9
				c4.1-31.2,23.5-52.8,51-52.8c29.8,0,46.9,23.2,49.9,52.8H812.2z"/>
			<path class="st3" d="M868.5,2591.4c-60.5,0-104.4-45.3-104.4-107.6v-0.8c0-29,9.9-56.1,27.8-76.1c18.4-20.6,43.9-31.9,71.7-31.9
				c37.6,0,60.4,18.1,72.9,33.3c15.3,18.6,24.1,43.8,24.1,69c0,14.3-10.9,25.5-24.7,25.5H816.8c5.6,27.2,25.3,43.9,52.4,43.9
				c16.5,0,31-5.4,44.3-16.7c3.8-3,7.6-5,13.8-5c12,0,21.4,9.7,21.4,22.1c0,6.1-2.5,11.9-7,16.5l-0.1,0.1
				C921.3,2582.4,897.4,2591.4,868.5,2591.4z M863.6,2382c-25.8,0-49.4,10.5-66.5,29.6c-16.8,18.7-26.1,44.1-26.1,71.4v0.8
				c0,58.3,41,100.6,97.4,100.6c27.1,0,49.4-8.4,68.3-25.6c1.9-1.9,4.9-5.9,4.9-11.5c0-8.6-6.2-15.1-14.4-15.1
				c-4.3,0-6.5,1.2-9.4,3.4c-14.6,12.3-30.5,18.2-48.7,18.2c-32.1,0-55.1-20.7-60.1-53.9l-0.6-4h127.3c10.1,0,17.7-8,17.7-18.5
				c0-23.7-8.2-47.2-22.5-64.6C919.6,2398.7,898.5,2382,863.6,2382z M917,2472.4H808.2l0.5-4c4.5-33.9,25.8-55.9,54.5-55.9
				c15.1,0,28.1,5.7,37.6,16.5c8.7,9.9,14.1,23.5,15.8,39.5L917,2472.4z M816.3,2465.4h92.9c-3.4-22.8-17-45.8-45.9-45.8
				C839.4,2419.6,821.3,2437.4,816.3,2465.4z"/>
		</g>
		<path class="st3" d="M1150.7,2376.9c-11.2,0-19.4,6.1-24.5,18.1l-48.2,125.3l-47.4-124.5c-5-12.7-13.4-18.9-25.6-18.9
			c-13.8,0-25.8,11.9-25.8,25.5c0,4.2,1.2,7.9,2.3,11.1c0.2,0.5,0.3,0.9,0.4,1.3l0,0.1l65.6,153.3c4.4,10.2,12.9,22.3,28.9,22.3h2.2
			c12.5,0,22.5-7.7,28.9-22.3l65.5-153.4c1.1-2.3,2.9-7.4,2.9-12.5C1176.2,2388.1,1165,2376.9,1150.7,2376.9z"/>
		<g>
			<path class="st3" d="M1294.1,2378.5c-56.2,0-96.1,47.1-96.1,104.5v0.8c0,61.9,43.9,104.1,100.9,104.1c30.5,0,52.9-10.3,70.8-26.6
				c3.4-3.4,6-8.4,6-14.1c0-10.6-7.8-18.6-17.9-18.6c-5.2,0-8.2,1.5-11.5,4.2c-12.7,10.6-27.6,17.5-46.6,17.5
				c-29,0-51.8-18.2-56.6-50.9h123.3c11.5,0,21.2-9.1,21.2-22C1387.6,2430.9,1356.7,2378.5,1294.1,2378.5z M1242.7,2468.9
				c4.1-31.2,23.5-52.8,51-52.8c29.8,0,46.9,23.2,49.9,52.8H1242.7z"/>
			<path class="st3" d="M1299,2591.4c-60.5,0-104.4-45.3-104.4-107.6v-0.8c0-29,9.9-56.1,27.8-76.1c18.4-20.6,43.9-31.9,71.7-31.9
				c37.6,0,60.4,18.1,72.9,33.3c15.3,18.6,24.1,43.8,24.1,69c0,14.3-10.9,25.5-24.7,25.5h-119.1c5.6,27.2,25.3,43.9,52.4,43.9
				c16.5,0,31-5.4,44.3-16.7c3.8-3,7.6-5,13.8-5c12,0,21.4,9.7,21.4,22.1c0,6.1-2.5,11.9-7,16.5l-0.1,0.1
				C1351.8,2582.4,1327.9,2591.4,1299,2591.4z M1294.1,2382c-25.8,0-49.4,10.5-66.5,29.6c-16.8,18.7-26.1,44.1-26.1,71.4v0.8
				c0,58.3,41,100.6,97.4,100.6c27.1,0,49.4-8.4,68.3-25.6c1.9-1.9,4.9-5.9,4.9-11.5c0-8.6-6.2-15.1-14.4-15.1
				c-4.3,0-6.5,1.2-9.4,3.4c-14.6,12.3-30.5,18.2-48.7,18.2c-32.1,0-55.1-20.7-60.1-53.9l-0.6-4h127.3c10.1,0,17.7-8,17.7-18.5
				c0-23.7-8.2-47.2-22.5-64.6C1350.1,2398.7,1329,2382,1294.1,2382z M1347.5,2472.4h-108.8l0.5-4c4.5-33.9,25.8-55.9,54.5-55.9
				c15.1,0,28.1,5.7,37.6,16.5c8.7,9.9,14.1,23.5,15.8,39.5L1347.5,2472.4z M1246.8,2465.4h92.9c-3.4-22.8-17-45.8-45.9-45.8
				C1269.9,2419.6,1251.8,2437.4,1246.8,2465.4z"/>
		</g>
		<g>
			<path class="st3" d="M1532.2,2376.5c-16.9,0-34,12.5-46,32.7v-5.7c0-15-11.5-26.7-26.2-26.7c-14.5,0-25.8,11.7-25.8,26.7v158.8
				c0,14.7,11.4,26.3,25.8,26.3c14.5,0,26.2-11.8,26.2-26.3v-59.3c0-42.4,18.2-69,51.1-74.8c12.6-2.4,20.7-12.4,20.7-25.5
				C1558.1,2387.1,1547.7,2376.5,1532.2,2376.5z"/>
			<path class="st3" d="M1756.9,2376.9c-11.4,0-19.7,6.6-24.9,19.8l-46,124.8l-49.5-124.8c-5.1-13.3-13.4-19.7-25.2-19.7
				c-14.7,0-25.8,11.1-25.8,25.9c0,3.4,1.2,8.4,2.9,12.4l72.4,165.2l-1,2.7c-6.9,14.5-13,19.1-24.7,19.1c-5.7,0-9.3-0.9-14.6-2.5
				c-2.3-0.8-5-1.7-9.2-1.7c-12.2,0-21.7,9.9-21.7,22.5c0,10.4,6.1,18.7,16.4,22.3c10.2,4.1,19.9,5.9,32.5,5.9
				c33.3,0,52.1-15.8,69.5-58.4l71.9-175.9l0.1-0.2c0.8-2.5,2-7.8,2-12.1C1782,2388.2,1770.8,2376.9,1756.9,2376.9z"/>
		</g>
	</g>
	<path class="st1" d="M-1630.8,2266.2C-1630.8,2266.2-1630.8,2266.2-1630.8,2266.2C-1630.8,2266.2-1630.8,2266.2-1630.8,2266.2
		L-1630.8,2266.2z"/>
	<path class="st1" d="M-1630.8,2268.2C-1630.8,2268.2-1630.8,2268.2-1630.8,2268.2L-1630.8,2268.2
		C-1630.8,2268.2-1630.8,2268.2-1630.8,2268.2z"/>
	<g>
		<g>
			<g>
				<g>
					<path class="st4" d="M362.3,922.7c0,143.2,89.8,376.6,276.5,713.6c132.1,238.4,361.5,557.3,361.5,557.3c0,0.2,3.2,3.6,3.2,3.6
						s2.8-3.2,2.8-3.3c0,0,228.8-319.2,360.9-557.6c186.7-337,276.6-570.4,276.6-713.6"/>
				</g>
				<g>
					<path class="st3" d="M1003.5,2219.9c-6.2,0-12.2-2.6-16.5-7.1c-1.8-1.9-3.6-3.8-5.1-6l0,0c-2.3-3.2-231.7-322.8-362.9-559.6
						C431,1308,339.6,1071,339.6,922.7c0-12.5,10.2-22.7,22.7-22.7s22.7,10.2,22.7,22.7c0,68.6,22.4,161.5,66.7,275.9
						c45.2,116.8,114.8,260.4,207,426.7c110.3,199.1,291.2,457.9,344.7,533.5c53.6-76,233.8-334.7,343.9-533.5
						c92.2-166.3,161.8-309.9,207-426.7c44.3-114.4,66.7-207.3,66.7-275.9c0-12.5,10.2-22.7,22.7-22.7s22.7,10.2,22.7,22.7
						c0,148.3-91.4,385.3-279.4,724.6c-131.2,236.8-360,556.6-362.3,559.8l0,0c-1.3,1.8-2.7,3.5-4.1,5.1c-4.2,4.8-10.3,7.6-16.7,7.7
						C1003.8,2219.9,1003.7,2219.9,1003.5,2219.9z M1023,2193.5C1023,2193.5,1023,2193.6,1023,2193.5
						C1023,2193.6,1023,2193.5,1023,2193.5z M983.6,2193.6L983.6,2193.6c0-3.9,1.1-7.8,3.1-11.1l0,0
						C985.3,2184.8,983.7,2188.6,983.6,2193.6z M1023,2193.5C1023,2193.5,1023,2193.5,1023,2193.5
						C1023,2193.5,1023,2193.5,1023,2193.5z M1019.7,2181.9c2.1,3.5,3.2,7.5,3.2,11.6C1023,2188.3,1021.2,2184.4,1019.7,2181.9
						L1019.7,2181.9z"/>
				</g>
			</g>
			<g>
				<g>
					<path class="st5" d="M736.3,1198.8V1458c0,148.5,120.9,268.9,268.3,268.9s268.3-120.4,268.3-268.9v-259.2"/>
				</g>
				<g>
					<path class="st3" d="M1004.6,1749.1c-160.2,0-290.6-130.6-290.6-291.2v-259.2c0-12.3,10-22.2,22.2-22.2
						c12.3,0,22.2,10,22.2,22.2V1458c0,136,110.4,246.7,246.1,246.7c135.7,0,246.1-110.7,246.1-246.7v-259.2
						c0-12.3,10-22.2,22.2-22.2s22.2,10,22.2,22.2V1458C1295.2,1618.5,1164.8,1749.1,1004.6,1749.1z"/>
				</g>
			</g>
			<g>
				<g>
					<path class="st6" d="M667.1,1081.6c0,187.7,149.5,339.8,335.9,339.8s335.9-152.1,335.9-339.8"/>
				</g>
				<g>
					<path class="st3" d="M1003,1444.1c-96.2,0-186.4-37.7-254-106.3c-32.8-33.3-58.6-72-76.6-115.2c-18.6-44.6-28-92.1-28-141
						c0-12.5,10.2-22.7,22.7-22.7s22.7,10.2,22.7,22.7c0,84.9,32.5,164.5,91.5,224.3c59,59.8,137.7,92.8,221.7,92.8
						c83.9,0,162.6-32.9,221.7-92.8c59-59.8,91.5-139.5,91.5-224.3c0-12.5,10.2-22.7,22.7-22.7s22.7,10.2,22.7,22.7
						c0,48.9-9.4,96.3-28,141c-18,43.2-43.7,82-76.6,115.2C1189.4,1406.3,1099.2,1444.1,1003,1444.1z"/>
				</g>
			</g>
		</g>
		<g>
			<g>
				<g>
					<g>
						<g>
							<g>
								<path class="st4" d="M776.2,930.5h453.1c4.8,134.2-22.4,348,124.1,413.5c78.3,35,175-1,230.3-66.6
									c124.2-147.5,91.4-352.3,38.6-521.3c-57.2-183.3-182.3-339.6-359-420c-81.7-37.2-171.2-57-261-56.5"/>
							</g>
						</g>
					</g>
				</g>
				<g>
					<g>
						<g>
							<g>
								<path class="st4" d="M1222.2,930.5H770.7c-4.8,134.2,22.4,348-124.1,413.5c-78.3,35-175-1-230.3-66.6
									c-124.2-147.5-91.4-352.3-38.6-521.3c57.2-183.3,182.3-339.6,359-420c81.7-37.2,170.3-57,260.2-56.5"/>
							</g>
						</g>
					</g>
				</g>
			</g>
			<g>
				<g id="XMLID_40_">
					<g>
						<g>
							<path class="st7" d="M1097.8,1272.1v197.2c0,53-44.8,96-97.8,96c-53,0-97.8-42.9-97.8-96v-197.2H1097.8z"/>
						</g>
					</g>
					<g>
						<g>
							<path class="st3" d="M1000,1586.2c-31.2,0-60.8-12.1-83.4-34c-22.8-22.2-35.3-51.6-35.3-82.9v-197.2c0-11.6,9.4-21,21-21
								h195.5c11.6,0,21,9.4,21,21v197.2c0,31.2-12.6,60.7-35.3,82.9C1060.8,1574.1,1031.2,1586.2,1000,1586.2z M923.2,1293v176.2
								c0,19.8,8.1,38.6,22.7,52.9c14.7,14.3,33.9,22.1,54.1,22.1s39.5-7.9,54.1-22.1c14.6-14.3,22.7-33,22.7-52.9V1293H923.2z"/>
						</g>
						<g>
							<path class="st8" d="M999.3,1532.8c-8.4,0-15.8-6.1-17.2-14.7c-1.5-9.5,4.9-18.5,14.5-20c21.9-3.5,37.5-24.5,34-45.8
								c-1.5-9.5,5-18.5,14.5-20c9.5-1.5,18.5,5,20,14.5c3.2,19.7-1.8,39.6-13.9,55.9c-12,16.1-29.4,26.7-49.1,29.9
								C1001.1,1532.7,1000.2,1532.8,999.3,1532.8z"/>
						</g>
						<g>
							<path class="st3" d="M1001.4,1466.6c-11.6,0-21-9.4-21-21v-166.1c0-11.6,9.4-21,21-21s21,9.4,21,21v166.1
								C1022.3,1457.2,1012.9,1466.6,1001.4,1466.6z"/>
						</g>
					</g>
				</g>
				<g>
					<g>
						<path class="st8" d="M1050.1,1419.7c-9.8,0-17.8-8-17.8-17.8v-14.5c0-9.8,8-17.8,17.8-17.8s17.8,8,17.8,17.8v14.5
							C1067.9,1411.7,1060,1419.7,1050.1,1419.7z"/>
					</g>
				</g>
			</g>
			<g>
				<g>
					<path class="st9" d="M1000,1175.3"/>
				</g>
			</g>
			<g>
				<g>
					<g>
						<path class="st10" d="M646.6,1061.1c0,80.7,25,153.9,67.4,214.5l48.8-84L941.6,1304h106.2l178.8-113.1l53.5,91.9
							c46-62.1,73.4-137,73.4-221.4c0-100-38.4-192.5-100.7-254.1H747.2C685,868.8,646.6,961.1,646.6,1061.1z"/>
					</g>
				</g>
			</g>
			<g>
				<g>
					<g>
						<g>
							<g>
								<path class="st3" d="M1418.9,1380.4c-26.2,0-51.4-5.2-74.7-15.7c-67.8-30.3-109.1-91.4-126.3-186.7
									c-2.2-12.3,6-24.1,18.3-26.4c12.3-2.2,24.1,6,26.4,18.3c6.9,38.1,17.5,68.6,32.6,93.2c16.9,27.6,39,47.3,67.5,60.1
									c22.3,10,59.2,18.7,107.7,3.5c36.8-11.6,70.9-34.3,95.9-64c27.6-32.8,48.3-70.5,61.6-112.2c12.1-37.9,18.4-80.3,18.8-126
									c0.6-75-14.5-160.7-46-261.7c-28.2-90.3-72.1-171.3-130.4-240.7c-60.4-71.9-133.2-127.5-216.3-165.4
									c-78.4-35.7-164.2-54.5-248.2-54.5c-0.9,0-1.9,0-2.8,0c0,0-0.1,0-0.1,0c-12.5,0-22.6-10.1-22.7-22.6
									c-0.1-12.5,10-22.8,22.6-22.8c1,0,2,0,3.1,0c90.4,0,182.7,20.2,267,58.6c89.4,40.7,167.5,100.4,232.3,177.5
									c62.2,74.1,109,160.3,139,256.4c33,105.6,48.7,195.8,48.1,275.6c-0.4,50.2-7.4,97.1-20.9,139.4
									c-15.1,47.4-38.7,90.3-70.1,127.7c-30.5,36.2-72.1,64-117,78.1C1462,1377,1440.1,1380.4,1418.9,1380.4z"/>
							</g>
						</g>
					</g>
				</g>
				<g>
					<g>
						<g>
							<g>
								<path class="st3" d="M581.1,1380.4c-21.2,0-43.1-3.4-65.1-10.4c-45-14.1-86.5-41.9-117-78.1c-31.4-37.3-55-80.3-70.1-127.7
									c-13.5-42.3-20.5-89.2-20.9-139.4c-0.6-79.8,15.1-170,48.1-275.6c30-96.1,76.8-182.3,139-256.4
									c64.8-77.1,142.9-136.8,232.3-177.5c86.4-39.3,177.1-59,269.2-58.6c12.5,0.1,22.7,10.3,22.6,22.8
									c-0.1,12.5-10.2,22.6-22.7,22.6c0,0-0.1,0-0.1,0c-1,0-2,0-3,0c-84.6,0-167.7,18.3-247.2,54.5
									c-83.2,37.8-155.9,93.5-216.3,165.4c-58.3,69.4-102.2,150.4-130.4,240.7c-31.6,101.1-46.6,186.7-46,261.7
									c0.4,45.7,6.7,88.1,18.8,126c13.3,41.7,34,79.4,61.6,112.2c25,29.7,59.1,52.4,95.9,64c26.8,8.4,67.2,14.6,107.7-3.5
									c56.5-25.3,89-78.2,102.3-166.6c1.9-12.4,13.4-20.9,25.8-19.1c12.4,1.9,20.9,13.4,19.1,25.8
									c-15.6,103.7-57.7,169.5-128.7,201.3C632.5,1375.2,607.2,1380.4,581.1,1380.4z"/>
							</g>
						</g>
						<g>
							<g>
								<path class="st11" d="M1221.2,930.5"/>
							</g>
						</g>
					</g>
				</g>
			</g>
			<g>
				<g>
					<path class="st4" d="M739.9,796.3v250.6c0,147.3,116.7,266.6,262.9,266.6s262.9-119.4,262.9-266.6V796.3"/>
				</g>
				<g>
					<path class="st3" d="M1002.8,1335.8c-76.6,0-148.4-30.1-202.1-84.7c-53.5-54.4-83-126.9-83-204.1V796.3
						c0-12.3,10-22.2,22.2-22.2s22.2,10,22.2,22.2v250.6c0,65.5,24.9,126.9,70.2,172.9c45.3,46.1,105.8,71.4,170.4,71.4
						s125.1-25.4,170.4-71.4c45.3-46.1,70.2-107.5,70.2-172.9V796.3c0-12.3,10-22.2,22.2-22.2s22.2,10,22.2,22.2v250.6
						c0,77.2-29.5,149.7-83,204.1C1151.2,1305.7,1079.4,1335.8,1002.8,1335.8z"/>
				</g>
			</g>
			<g>
				<g>
					<path class="st3" d="M912,1019.7c-26.4,0-46.1,24.7-40.2,50.6c16.6,72.3,67.7,126,128.2,126c60.5,0,111.6-53.6,128.2-126
						c5.9-25.9-13.8-50.6-40.2-50.6H912z"/>
				</g>
			</g>
			<g>
				<g>
					<g>
						<g>
							<g>
								<g>
									<g>
										<ellipse class="st3" cx="826.1" cy="638.7" rx="82.5" ry="83.1"/>
									</g>
									<g>
										<path class="st3" d="M826.1,723.8c-46.6,0-84.6-38.2-84.6-85.2s37.9-85.2,84.6-85.2s84.6,38.2,84.6,85.2
											S872.8,723.8,826.1,723.8z M826.1,557.6c-44.4,0-80.5,36.4-80.5,81.1s36.1,81.1,80.5,81.1s80.5-36.4,80.5-81.1
											S870.5,557.6,826.1,557.6z"/>
									</g>
								</g>
							</g>
						</g>
						<g>
							<g>
								<g>
									<g>
										<ellipse class="st8" cx="844.4" cy="615.2" rx="30.2" ry="30.4"/>
									</g>
									<g>
										<path class="st3" d="M844.4,647.2c-17.5,0-31.8-14.3-31.8-32s14.2-32,31.8-32s31.8,14.3,31.8,32S861.9,647.2,844.4,647.2z
											 M844.4,586.4c-15.8,0-28.6,12.9-28.6,28.8s12.8,28.8,28.6,28.8s28.6-12.9,28.6-28.8S860.2,586.4,844.4,586.4z"/>
									</g>
								</g>
							</g>
						</g>
					</g>
				</g>
				<g>
					<g>
						<g>
							<g>
								<g>
									<g>
										<ellipse class="st3" cx="1173.9" cy="638.7" rx="82.5" ry="83.1"/>
									</g>
									<g>
										<path class="st3" d="M1173.9,723.8c-46.6,0-84.6-38.2-84.6-85.2s37.9-85.2,84.6-85.2c46.6,0,84.6,38.2,84.6,85.2
											S1220.5,723.8,1173.9,723.8z M1173.9,557.6c-44.4,0-80.5,36.4-80.5,81.1s36.1,81.1,80.5,81.1c44.4,0,80.5-36.4,80.5-81.1
											S1218.2,557.6,1173.9,557.6z"/>
									</g>
								</g>
							</g>
						</g>
						<g>
							<g>
								<g>
									<g>
										<ellipse class="st8" cx="1192.1" cy="615.2" rx="30.2" ry="30.4"/>
									</g>
									<g>
										<path class="st3" d="M1192.1,647.2c-17.5,0-31.8-14.3-31.8-32s14.2-32,31.8-32s31.8,14.3,31.8,32
											S1209.6,647.2,1192.1,647.2z M1192.1,586.4c-15.8,0-28.6,12.9-28.6,28.8s12.8,28.8,28.6,28.8c15.8,0,28.6-12.9,28.6-28.8
											S1207.9,586.4,1192.1,586.4z"/>
									</g>
								</g>
							</g>
						</g>
					</g>
				</g>
			</g>
		</g>
	</g>
</g>
<g id="Layer_2">
</g>
</svg>
