<?xml version="1.0" encoding="utf-8"?>
<!-- Generator: Adobe Illustrator 21.0.2, SVG Export Plug-In . SVG Version: 6.00 Build 0)  -->
<svg version="1.1" xmlns="http://www.w3.org/2000/svg" xmlns:xlink="http://www.w3.org/1999/xlink" x="0px" y="0px"
	 viewBox="0 0 2000 1000" style="enable-background:new 0 0 2000 1000;" xml:space="preserve">
<style type="text/css">
	.st0{fill:none;stroke:#000000;stroke-width:7;stroke-linecap:round;stroke-miterlimit:10;}
	.st1{fill:none;}
	.st2{fill:none;stroke:#F8F6F6;stroke-miterlimit:10;}
	.st3{fill:#F8F6F6;}
</style>
<g id="Layer_1">
	<line class="st0" x1="-1063.7" y1="-3536.8" x2="-1047.5" y2="-3520.5"/>
	<g>
		<g>
			<path class="st1" d="M863.3,441.7c-27.6,0-46.9,21.7-51,52.8h100.9C910.2,464.9,893,441.7,863.3,441.7z"/>
		</g>
		<g>
			<path class="st2" d="M1293.7,441.7c-27.6,0-46.9,21.7-51,52.8h100.9C1340.7,464.9,1323.5,441.7,1293.7,441.7z"/>
		</g>
		<path class="st3" d="M318.7,371.8c2.8,0,6.4,0.4,8.8,0.7l0.4,0c5.8,0.2,11.4-1.9,15.7-6.1c4.4-4.3,6.9-10.2,6.9-16.4
			c0-12.9-9.6-21.2-18.6-22.5c-7.3-1.3-14.9-1.9-23.3-1.9c-20.3,0-35.6,5.6-46.8,17c-11.3,11.5-17,29-17,51.9v11.3h-4.3
			c-12.4,0-22.5,10.3-22.5,22.9c0,12.4,10.1,22.5,22.5,22.5h4.3V588c0,14.5,11.6,26.3,25.8,26.3c14.5,0,26.2-11.8,26.2-26.3V451.2
			h30.8c12.4,0,22.5-10.1,22.5-22.5c0-12.6-9.9-22.5-22.5-22.5h-31.5v-7.5C296.1,380.1,303.1,371.8,318.7,371.8z"/>
		<path class="st3" d="M543.8,402.4c-14.7,0-26.2,11.7-26.2,26.7v92.3c0,28.3-15.6,45.9-40.8,45.9c-24.9,0-38.6-16-38.6-45.1v-93.1
			c0-15-11.5-26.7-26.2-26.7c-14.3,0-25.8,12-25.8,26.7v106.8c0,49.7,28.2,80.6,73.5,80.6c23.4,0,42.5-9.2,58-28.2
			c0.2,14.3,11.9,25.9,26.2,25.9c14.5,0,26.2-11.8,26.2-26.3V429.1C570,414.4,558.3,402.4,543.8,402.4z"/>
		<path class="st3" d="M720,402.1c-16.9,0-34,12.5-46,32.7v-5.7c0-15-11.5-26.7-26.2-26.7c-14.5,0-25.8,11.7-25.8,26.7V588
			c0,14.7,11.4,26.3,25.8,26.3c14.5,0,26.2-11.8,26.2-26.3v-59.3c0-42.4,18.2-69,51.1-74.8c12.6-2.4,20.7-12.4,20.7-25.5
			C745.8,412.6,735.4,402.1,720,402.1z"/>
		<g>
			<path class="st3" d="M863.6,404c-56.2,0-96.1,47.1-96.1,104.5v0.8c0,61.9,43.9,104.1,100.9,104.1c30.5,0,52.9-10.3,70.8-26.6
				c3.4-3.4,6-8.4,6-14.1c0-10.6-7.8-18.6-17.9-18.6c-5.2,0-8.2,1.5-11.5,4.2c-12.7,10.6-27.6,17.5-46.6,17.5
				c-29,0-51.8-18.2-56.6-50.9h123.3c11.5,0,21.2-9.1,21.2-22C957.1,456.5,926.2,404,863.6,404z M812.2,494.5
				c4.1-31.2,23.5-52.8,51-52.8c29.8,0,46.9,23.2,49.9,52.8H812.2z"/>
			<path class="st3" d="M868.5,616.9C808,616.9,764,571.7,764,509.3v-0.8c0-29,9.9-56.1,27.8-76.1c18.4-20.6,43.9-31.9,71.7-31.9
				c37.6,0,60.4,18.1,72.9,33.3c15.3,18.6,24.1,43.8,24.1,69c0,14.3-10.9,25.5-24.7,25.5H816.8c5.6,27.2,25.3,43.9,52.4,43.9
				c16.5,0,31-5.4,44.3-16.7c3.8-3,7.6-5,13.8-5c12,0,21.4,9.7,21.4,22.1c0,6.1-2.5,11.9-7,16.5l-0.1,0.1
				C921.3,607.9,897.4,616.9,868.5,616.9z M863.6,407.5c-25.8,0-49.4,10.5-66.5,29.6c-16.8,18.7-26.1,44.1-26.1,71.4v0.8
				c0,58.3,41,100.6,97.4,100.6c27.1,0,49.4-8.4,68.3-25.6c1.9-1.9,4.9-5.9,4.9-11.5c0-8.6-6.2-15.1-14.4-15.1
				c-4.3,0-6.5,1.2-9.4,3.4c-14.6,12.3-30.5,18.2-48.7,18.2c-32.1,0-55.1-20.7-60.1-53.9l-0.6-4h127.3c10.1,0,17.7-8,17.7-18.5
				c0-23.7-8.2-47.2-22.5-64.6C919.6,424.3,898.5,407.5,863.6,407.5z M917,498H808.2l0.5-4c4.5-33.9,25.8-55.9,54.5-55.9
				c15.1,0,28.1,5.7,37.6,16.5c8.7,9.9,14.1,23.5,15.8,39.5L917,498z M816.3,491h92.9c-3.4-22.8-17-45.8-45.9-45.8
				C839.4,445.2,821.3,463,816.3,491z"/>
		</g>
		<path class="st3" d="M1150.7,402.4c-11.2,0-19.4,6.1-24.5,18.1l-48.2,125.3l-47.4-124.5c-5-12.7-13.4-18.9-25.6-18.9
			c-13.8,0-25.8,11.9-25.8,25.5c0,4.2,1.2,7.9,2.3,11.1c0.2,0.5,0.3,0.9,0.4,1.3l0,0.1l65.6,153.3c4.4,10.2,12.9,22.3,28.9,22.3h2.2
			c12.5,0,22.5-7.7,28.9-22.3l65.5-153.4c1.1-2.3,2.9-7.4,2.9-12.5C1176.2,413.7,1165,402.4,1150.7,402.4z"/>
		<g>
			<path class="st3" d="M1294.1,404c-56.2,0-96.1,47.1-96.1,104.5v0.8c0,61.9,43.9,104.1,100.9,104.1c30.5,0,52.9-10.3,70.8-26.6
				c3.4-3.4,6-8.4,6-14.1c0-10.6-7.8-18.6-17.9-18.6c-5.2,0-8.2,1.5-11.5,4.2c-12.7,10.6-27.6,17.5-46.6,17.5
				c-29,0-51.8-18.2-56.6-50.9h123.3c11.5,0,21.2-9.1,21.2-22C1387.6,456.5,1356.7,404,1294.1,404z M1242.7,494.5
				c4.1-31.2,23.5-52.8,51-52.8c29.8,0,46.9,23.2,49.9,52.8H1242.7z"/>
			<path class="st3" d="M1299,616.9c-60.5,0-104.4-45.3-104.4-107.6v-0.8c0-29,9.9-56.1,27.8-76.1c18.4-20.6,43.9-31.9,71.7-31.9
				c37.6,0,60.4,18.1,72.9,33.3c15.3,18.6,24.1,43.8,24.1,69c0,14.3-10.9,25.5-24.7,25.5h-119.1c5.6,27.2,25.3,43.9,52.4,43.9
				c16.5,0,31-5.4,44.3-16.7c3.8-3,7.6-5,13.8-5c12,0,21.4,9.7,21.4,22.1c0,6.1-2.5,11.9-7,16.5l-0.1,0.1
				C1351.8,607.9,1327.9,616.9,1299,616.9z M1294.1,407.5c-25.8,0-49.4,10.5-66.5,29.6c-16.8,18.7-26.1,44.1-26.1,71.4v0.8
				c0,58.3,41,100.6,97.4,100.6c27.1,0,49.4-8.4,68.3-25.6c1.9-1.9,4.9-5.9,4.9-11.5c0-8.6-6.2-15.1-14.4-15.1
				c-4.3,0-6.5,1.2-9.4,3.4c-14.6,12.3-30.5,18.2-48.7,18.2c-32.1,0-55.1-20.7-60.1-53.9l-0.6-4h127.3c10.1,0,17.7-8,17.7-18.5
				c0-23.7-8.2-47.2-22.5-64.6C1350.1,424.3,1329,407.5,1294.1,407.5z M1347.5,498h-108.8l0.5-4c4.5-33.9,25.8-55.9,54.5-55.9
				c15.1,0,28.1,5.7,37.6,16.5c8.7,9.9,14.1,23.5,15.8,39.5L1347.5,498z M1246.8,491h92.9c-3.4-22.8-17-45.8-45.9-45.8
				C1269.9,445.2,1251.8,463,1246.8,491z"/>
		</g>
		<g>
			<path class="st3" d="M1532.2,402.1c-16.9,0-34,12.5-46,32.7v-5.7c0-15-11.5-26.7-26.2-26.7c-14.5,0-25.8,11.7-25.8,26.7V588
				c0,14.7,11.4,26.3,25.8,26.3c14.5,0,26.2-11.8,26.2-26.3v-59.3c0-42.4,18.2-69,51.1-74.8c12.6-2.4,20.7-12.4,20.7-25.5
				C1558.1,412.6,1547.7,402.1,1532.2,402.1z"/>
			<path class="st3" d="M1756.9,402.4c-11.4,0-19.7,6.6-24.9,19.8L1686,547l-49.5-124.8c-5.1-13.3-13.4-19.7-25.2-19.7
				c-14.7,0-25.8,11.1-25.8,25.9c0,3.4,1.2,8.4,2.9,12.4l72.4,165.2l-1,2.7c-6.9,14.5-13,19.1-24.7,19.1c-5.7,0-9.3-0.9-14.6-2.5
				c-2.3-0.8-5-1.7-9.2-1.7c-12.2,0-21.7,9.9-21.7,22.5c0,10.4,6.1,18.7,16.4,22.3c10.2,4.1,19.9,5.9,32.5,5.9
				c33.3,0,52.1-15.8,69.5-58.4l71.9-175.9l0.1-0.2c0.8-2.5,2-7.8,2-12.1C1782,413.7,1770.8,402.4,1756.9,402.4z"/>
		</g>
	</g>
</g>
<g id="Layer_2">
</g>
</svg>
